<?xml version="1.0" encoding="UTF-8" standalone="no"?>
<svg
   xmlns:dc="http://purl.org/dc/elements/1.1/"
   xmlns:cc="http://creativecommons.org/ns#"
   xmlns:rdf="http://www.w3.org/1999/02/22-rdf-syntax-ns#"
   xmlns:svg="http://www.w3.org/2000/svg"
   xmlns="http://www.w3.org/2000/svg"
   xmlns:sodipodi="http://sodipodi.sourceforge.net/DTD/sodipodi-0.dtd"
   xmlns:inkscape="http://www.inkscape.org/namespaces/inkscape"
   width="293.563"
   height="367.529"
   viewBox="0 0 77.672 97.242"
   version="1.1"
   id="svg61"
   sodipodi:docname="Seal of Subang Regency (1).svg"
   inkscape:version="1.0.1 (3bc2e813f5, 2020-09-07)">
  <metadata
     id="metadata65">
    <rdf:RDF>
      <cc:Work
         rdf:about="">
        <dc:format>image/svg+xml</dc:format>
        <dc:type
           rdf:resource="http://purl.org/dc/dcmitype/StillImage" />
      </cc:Work>
    </rdf:RDF>
  </metadata>
  <sodipodi:namedview
     pagecolor="#ffffff"
     bordercolor="#666666"
     borderopacity="1"
     objecttolerance="10"
     gridtolerance="10"
     guidetolerance="10"
     inkscape:pageopacity="0"
     inkscape:pageshadow="2"
     inkscape:window-width="1366"
     inkscape:window-height="705"
     id="namedview63"
     showgrid="false"
     inkscape:zoom="1.2242162"
     inkscape:cx="103.79642"
     inkscape:cy="37.761077"
     inkscape:window-x="-8"
     inkscape:window-y="-8"
     inkscape:window-maximized="1"
     inkscape:current-layer="svg61" />
  <defs
     id="defs5">
    <filter
       id="A"
       x="0"
       width="1"
       y="0"
       height="1"
       color-interpolation-filters="sRGB">
      <feGaussianBlur
         stdDeviation=".001"
         id="feGaussianBlur2" />
    </filter>
  </defs>
  <g
     transform="translate(-66.164 -126.307)"
     id="g59">
    <g
       fill-rule="evenodd"
       id="g17">
      <path
         d="M78.377 129.457H105h26.623c1.65 3.898 4.947 6.846 9.063 8.033v50.039c0 5.111-1.581 8.967-4.137 12.193s-6.138 5.798-10.096 8.025c-7.469 4.203-16.074 7.069-21.453 11.646-5.379-4.578-13.984-7.443-21.453-11.646-3.958-2.227-7.54-4.799-10.096-8.025s-4.137-7.083-4.137-12.193V137.49c4.116-1.187 7.413-4.135 9.063-8.033z"
         opacity=".998"
         fill="#016332"
         id="path7" />
      <path
         d="M76.367 126.457l-.34 1.031c-1.251 3.799-4.496 6.701-8.494 7.463l-1.219.233v52.346c0 5.746 1.868 10.374 4.785 14.057s6.835 6.445 10.975 8.775c8.28 4.66 17.551 7.78 21.883 11.971L105 223.34l1.043-1.008c4.332-4.191 13.603-7.311 21.882-11.971 4.14-2.33 8.058-5.093 10.975-8.775s4.785-8.311 4.785-14.057v-52.346l-1.219-.233c-3.998-.762-7.243-3.664-8.494-7.463l-.34-1.031H105zm2.01 3H105h26.623c1.65 3.898 4.947 6.846 9.062 8.033v50.039c0 5.111-1.581 8.967-4.137 12.194s-6.138 5.798-10.096 8.025c-7.469 4.203-16.075 7.068-21.453 11.646-5.379-4.578-13.984-7.443-21.453-11.646-3.958-2.227-7.539-4.799-10.096-8.025s-4.137-7.083-4.137-12.194V137.49c4.116-1.187 7.413-4.135 9.062-8.033z"
         opacity=".999"
         fill="#8d6b05"
         stroke="#4a3802"
         stroke-width=".3"
         id="path9" />
      <g
         fill="#f1b608"
         id="g15">
        <path
           d="M76.925 127.228l-.165.502c-1.338 4.064-4.806 7.164-9.082 7.979l-.592.113v51.708c0 5.579 1.797 10.016 4.619 13.578s6.654 6.278 10.748 8.582c8.194 4.611 17.451 7.649 22.041 12.089h0l.507.49.507-.49h0c4.59-4.44 13.846-7.478 22.04-12.089 4.094-2.304 7.923-5.016 10.749-8.582s4.619-7.999 4.619-13.578v-51.708l-.592-.113h-.001c-4.276-.815-7.743-3.915-9.082-7.979l-.165-.502H105zm1.452 1.458H105h26.623a.77.77 0 0 1 .71.47c1.56 3.687 4.671 6.47 8.566 7.593a.77.77 0 0 1 .558.741v50.039c0 5.27-1.657 9.333-4.303 12.673-2.65 3.345-6.316 5.964-10.322 8.218-7.559 4.254-16.141 7.144-21.332 11.562a.77.77 0 0 1-.999 0c-5.191-4.418-13.773-7.308-21.332-11.562-4.005-2.254-7.672-4.873-10.322-8.218-2.646-3.34-4.303-7.403-4.303-12.673V137.49a.77.77 0 0 1 .558-.741c3.895-1.123 7.005-3.906 8.566-7.593a.77.77 0 0 1 .71-.47z"
           opacity=".999"
           id="path11" />
      </g>
    </g>
    <path
       d="M103.61 146.302c-.93-.017-1.931.165-2.758.718-.526-.03-1.121-.067-1.781.046-.674.115-1.395.445-1.998 1.044-.775.063-1.469.276-2.005.651-.552.386-.964.865-1.363 1.351-1.084.224-2.124.939-2.814 2.252-1.234.658-2.078 1.72-2.493 3.002-.769.563-1.3 1.203-1.567 1.85-.273.66-.343 1.26-.423 1.774-.877 1.105-1.142 2.427-.977 4.04-.517.976-.773 2.246-.347 3.462l.313.893c-1.536 3.904.563 5.205 1.546 5.891.155-1.948-.134-3.803 1.19-5.997-.311 2.63.262 4.73 1.933 6.171-.344-2.354-.103-4.527 1.463-6.289-.275 1.661.351 4.273 2.205 5.818.202-1.843.049-3.669 1.562-5.574.24 1.899.513 3.795 2.304 5.5.202-2.54.693-3.952 2.14-5.105l5.259-.075 5.259.075c1.447 1.153 1.938 2.565 2.14 5.105 1.791-1.705 2.064-3.601 2.304-5.5 1.513 1.905 1.361 3.731 1.562 5.574 1.853-1.546 2.48-4.157 2.205-5.818 1.566 1.762 1.807 3.935 1.463 6.289 1.671-1.441 2.244-3.541 1.933-6.171 1.323 2.194 1.034 4.049 1.19 5.997.983-.687 3.082-1.987 1.546-5.891l.313-.893c.427-1.216.17-2.487-.347-3.462.165-1.612-.1-2.935-.977-4.04-.08-.514-.15-1.114-.423-1.774-.267-.647-.799-1.287-1.567-1.85-.415-1.282-1.259-2.344-2.493-3.002-.69-1.312-1.73-2.028-2.814-2.252-.399-.486-.811-.964-1.363-1.351-.536-.375-1.23-.589-2.005-.652-.603-.599-1.324-.929-1.998-1.044-.654-.112-1.244-.076-1.767-.046-.642-.429-1.392-.629-2.129-.695a4.98 4.98 0 0 0-2.009.224 4.65 4.65 0 0 0-1.414-.246zm-.033 1.799c.443.008.85.102 1.04.191l.382.179.382-.179c.253-.119.886-.229 1.491-.175s1.181.267 1.443.495l.272.235.36-.017c.632-.03 1.212-.071 1.678.009s.807.225 1.177.679l.278.341.439-.009c.647-.014 1.008.125 1.38.386s.747.69 1.197 1.245l.24.295.378.034c.813.073 1.355.312 1.923 1.576l.138.308.307.141c1.048.48 1.596 1.185 1.888 2.286l.09.341.299.189c.705.446.969.829 1.145 1.253s.233.938.342 1.574l.044.26.178.195c.793.868.914 1.498.696 3.159l-.042.32.171.274c.162.259.296.779.352 1.277-2.256-.624-3.568-.051-4.604.274-.568-.27-1.219-.486-1.959-.518a3.89 3.89 0 0 0-2.293.612c-.704-.274-1.439-.476-2.227-.427-.871.054-1.753.421-2.566 1.087l-4.598-.067-4.598.066c-.813-.666-1.695-1.033-2.566-1.087-.788-.049-1.523.153-2.227.427a3.89 3.89 0 0 0-2.293-.612c-.74.033-1.39.248-1.959.518-1.037-.325-2.348-.899-4.604-.274.057-.498.191-1.018.352-1.277l.171-.274-.042-.32c-.219-1.661-.098-2.291.696-3.159l.178-.195.044-.26c.109-.636.167-1.15.342-1.574s.44-.807 1.145-1.253l.299-.189.09-.341c.292-1.101.84-1.806 1.888-2.286l.307-.141.138-.308c.569-1.264 1.111-1.503 1.923-1.576l.378-.034.24-.295c.45-.554.825-.984 1.197-1.245s.732-.399 1.38-.386l.439.009.278-.341c.37-.453.711-.599 1.177-.679s1.045-.039 1.678-.009l.36.017.272-.235c.329-.284 1.156-.524 1.893-.511z"
       opacity=".999"
       fill="#f1b608"
       id="path19" />
    <path
       d="M103.577 148.102c.443.008.85.102 1.04.191l.382.179.382-.179c.253-.119.886-.229 1.491-.175s1.181.267 1.443.495l.272.235.36-.017c.632-.03 1.212-.071 1.678.009s.807.225 1.177.679l.278.341.439-.009c.647-.014 1.008.125 1.38.386s.747.69 1.197 1.245l.24.295.378.034c.813.073 1.355.312 1.923 1.576l.139.308.307.141c1.048.48 1.596 1.185 1.888 2.286l.09.341.299.189c.705.446.969.829 1.145 1.253s.233.938.342 1.574l.044.26.178.195c.793.868.914 1.498.696 3.159l-.042.32.171.274c.162.259.296.779.352 1.277-2.256-.624-3.568-.051-4.604.274-.568-.27-1.219-.486-1.959-.518a3.89 3.89 0 0 0-2.293.612c-.704-.274-1.439-.476-2.227-.427-.871.054-1.753.421-2.566 1.087l-4.598-.066-4.598.066c-.813-.666-1.695-1.033-2.566-1.087-.788-.049-1.523.153-2.227.427a3.89 3.89 0 0 0-2.293-.612c-.74.033-1.39.248-1.959.518-1.037-.325-2.348-.899-4.604-.274.057-.498.191-1.018.352-1.277l.171-.274-.042-.32c-.219-1.661-.098-2.291.696-3.159l.178-.195.044-.26c.109-.636.167-1.15.342-1.574s.44-.807 1.145-1.253l.299-.189.09-.341c.292-1.101.84-1.806 1.888-2.286l.307-.141.138-.308c.569-1.264 1.111-1.503 1.923-1.576l.378-.034.24-.295c.45-.554.825-.984 1.197-1.245s.732-.399 1.38-.386l.439.009.278-.341c.37-.453.711-.599 1.177-.679s1.045-.039 1.678-.009l.36.017.272-.235c.329-.284 1.156-.524 1.893-.511z"
       opacity=".999"
       fill="#00cd00"
       id="path21" />
    <g
       stroke="#f1b608"
       id="g41">
      <path
         d="M105 161.579c-.723 1.427-2.007 4.366-4.659 5.055 1.649 3.784-1.885 6.656-2.825 10.557H105h7.484c-.94-3.901-4.474-6.773-2.825-10.557-2.652-.69-3.936-3.628-4.659-5.055z"
         fill="#8b4513"
         id="path23" />
      <g
         fill="#00008b"
         id="g39">
        <g
           fill-rule="evenodd"
           stroke-width="1.5"
           id="g33">
          <path
             d="M99.708 184.421h10.496v3.648H99.708z"
             opacity=".998"
             id="path25" />
          <path
             d="M89.211 184.421h10.496v3.648H89.211zm20.993 0H120.7v3.648h-10.496z"
             opacity=".998"
             id="path27" />
          <path
             d="M81.572 184.421h7.64v3.648h-7.64zm39.129 0h7.727v3.648h-7.727zm-15.745-3.648h10.496v3.648h-10.496z"
             opacity=".998"
             id="path29" />
          <path
             d="M94.46 180.773h10.496v3.648H94.46z"
             opacity=".998"
             id="path31" />
        </g>
        <path
           d="M94.46 180.773v3.648h-9.469c-.07-1.506-.443-2.419-.859-3.648zm20.992 0v3.648h9.469c.07-1.506.443-2.419.859-3.648z"
           stroke-width="1.5"
           id="path35" />
        <path
           d="M81.827 175.308v1.536 1.437l2.305 2.491h20.825 20.825l2.305-2.491v-1.437-1.536h-6.146v1.536h-3.882v-1.536h-6.146v1.536h-3.882v-1.536h-6.146v1.536h-3.882v-1.536h-6.146v1.536h-3.882v-1.536z"
           stroke-width="1.5"
           id="path37" />
      </g>
    </g>
    <g
       fill="#fff"
       id="g57">
      <path
         d="M113.056 144.608l1.573-3.994 1.294.51q.736.29.935.438.308.225.42.619.114.391-.074.868-.145.368-.377.566-.232.198-.496.261-.26.061-.491.024-.311-.056-.859-.272l-.526-.207-.593 1.507zm2.114-3.001l-.446 1.133.441.174q.477.188.662.188.185.001.328-.097.145-.097.215-.274.086-.218.014-.41-.072-.192-.254-.305-.134-.084-.57-.256zm4.513 6.319l-.811-.481.175-1.03-1.476-.875-.802.658-.791-.469 3.628-2.839.788.468zm-.506-2.275l.304-1.672-1.311 1.074zm.871 2.585l2.785-3.267.642.547-.522 3.322 1.86-2.182.613.522-2.785 3.267-.662-.564.499-3.253-1.816 2.131zm6.221 3.947l.338.814q-.662.305-1.215.181-.548-.124-.994-.652-.551-.654-.46-1.45.093-.798.868-1.451.82-.691 1.629-.649.811.04 1.392.73.508.602.469 1.279-.022.401-.322.845l-.71-.524q.206-.273.197-.584-.007-.308-.23-.572-.308-.365-.762-.373-.453-.005-1.039.489-.623.525-.698.971-.076.447.226.805.223.264.551.313.328.049.759-.172zm1.75 5.598l-.485-.809.644-.823-.882-1.472-1.019.197-.473-.789 4.542-.773.471.786zm.636-2.242l1.062-1.326-1.664.322zm.742 1.947l.396.749q-.364.231-.461.521-.096.292.054.658.159.387.401.516.246.13.466.04.141-.058.204-.182.067-.122.056-.358-.009-.161-.09-.713-.104-.71.022-1.066.178-.5.649-.693.303-.124.636-.061.337.065.607.33.271.269.459.726.306.748.133 1.259-.172.514-.712.757l-.364-.788q.285-.177.348-.402.067-.224-.072-.562-.143-.35-.368-.489-.144-.09-.299-.026-.141.058-.192.218-.065.204.036.846.102.642.067.982-.031.342-.224.604-.189.264-.566.419-.341.14-.717.072-.376-.068-.664-.354-.286-.288-.498-.806-.309-.753-.127-1.299.184-.547.819-.899zm.203 4.445l4.117-1.217.246.831-4.117 1.217zm.49 1.647l4.179-.817.166.851-3.469.679.414 2.115-.71.139zm.871 7.449l-.051-.942.953-.427-.093-1.713-.993-.301-.05-.918 4.377 1.437.05.915zm1.61-1.686l1.559-.677-1.622-.493zm-57.725.577l.117-1.712q.035-.508.095-.754.058-.248.206-.435.148-.19.382-.306.231-.116.509-.097.301.02.541.201.24.178.347.464.141-.384.43-.575.289-.192.66-.166.292.02.56.176.265.153.416.401.148.245.162.592.009.218-.042 1.045l-.099 1.458zm.772-.816l.99.067.039-.567q.034-.505.028-.629-.011-.224-.128-.358-.12-.137-.327-.151-.199-.013-.329.089-.133.1-.174.314-.023.128-.065.738zm1.703.116l1.145.078.054-.801q.032-.467.014-.595-.022-.195-.148-.324-.129-.132-.357-.148-.193-.013-.334.071-.141.084-.214.258-.073.171-.113.761zm2.312-4.107l-4.169-1.025.76-3.091.705.173-.553 2.249.924.227.515-2.093.702.173-.515 2.093 1.135.279.573-2.329.702.173zm1.276-4.633l-3.923-1.743.342-.771 3.333-.442-2.62-1.164.327-.736 3.923 1.743-.353.795-3.261.445 2.558 1.137zm2.773-5.405l-2.959-1.992-.711 1.057-.602-.406 1.905-2.83.602.406-.71 1.054 2.959 1.992zm2.055-2.825l-3.096-2.974 2.205-2.296.524.503-1.604 1.671.686.659 1.493-1.554.522.501-1.493 1.554.843.809 1.661-1.73.522.501zm3.43-3.367l-2.473-3.509.689-.486 3.088 1.331-1.651-2.343.658-.464 2.473 3.509-.711.501-3.027-1.291 1.613 2.288zm5.498-5.054l-.282-.666 1.72-.729.667 1.575q-.148.349-.546.737-.397.384-.885.591-.62.263-1.191.199-.572-.066-1.008-.451-.437-.387-.679-.956-.262-.617-.206-1.207.055-.59.446-1.057.297-.358.863-.598.736-.312 1.28-.177.545.131.895.626l-.73.484q-.207-.256-.51-.325-.301-.073-.646.073-.523.222-.693.685-.167.462.11 1.114.298.704.761.924.461.218.968.003.251-.106.46-.31.211-.207.332-.424l-.212-.502z"
         id="path43" />
      <g
         transform="rotate(359.126 180.984 10148.549)"
         id="g55">
        <path
           d="M226.168 190.52l2.934-1.973.398.592-1.303.876 2.107.321.536.796-1.886-.336-1.008 2.369-.515-.766.835-1.732-.813-.151-.887.596z"
           id="path45" />
        <path
           d="M230.155 195.956l-.482-.609.438-.741-.878-1.108-.811.27-.47-.594 3.626-1.116.469.592zm.28-1.899l.726-1.196-1.325.44zm-.019 2.179l2.588-2.409 1.024 1.1q.386.415.49.668.107.253.034.532-.073.279-.303.493-.291.271-.641.277-.348.005-.715-.29.059.261.042.481-.015.221-.142.689l-.211.786-.582-.625.211-.902q.114-.482.123-.629.01-.148-.039-.257-.047-.111-.215-.291l-.099-.106-1.08 1.006zm1.98-.868l.36.387q.35.376.469.44.119.064.246.045.127-.019.243-.128.131-.122.144-.266.017-.144-.08-.291-.05-.072-.346-.389l-.38-.408z"
           id="path47" />
        <path
           d="M233.427 199.317l1.01-1.092.439-2.382.614.568-.339 1.592 1.548-.474.604.558-2.348.624-1.007 1.089zm3.919 3.262l-.61-.481.255-.822-1.109-.875-.726.45-.595-.469 3.271-1.923.593.468zm-.166-1.912l.43-1.332-1.187.734zm3.282-.254l.613.366-.982 1.644q-.234.391-.28.521-.072.21.007.411.082.201.339.354.261.156.456.129.197-.029.316-.168.12-.139.335-.499l1.003-1.679.613.366-.952 1.594q-.326.547-.511.743-.184.196-.412.271-.225.076-.505.036-.278-.042-.638-.258-.435-.26-.601-.494-.163-.235-.198-.472-.034-.239.03-.44.096-.297.4-.806zm1.996 5.17l1.279-2.644-.944-.457.26-.538 2.529 1.224-.26.538-.942-.456-1.279 2.644zm4.66 1.919l-.727-.273-.007-.86-1.323-.497-.555.649-.709-.266 2.531-2.826.707.265zm-.739-1.771l.005-1.399-.908 1.06zm1.095 1.88l.847-3.432 1.037.256.045 2.495 1.193-2.19 1.04.256-.847 3.432-.644-.159.666-2.702-1.348 2.534-.667-.165-.013-2.869-.666 2.702zm7.183 1.322l-.771-.096-.207-.835-1.402-.175-.389.761-.751-.094 1.805-3.337.749.094zm-1.131-1.551l-.321-1.362-.637 1.243zm2.494.442l.693-.084q.071.348.266.507.197.159.522.151.345-.008.515-.157.172-.151.168-.347-.003-.125-.08-.21-.075-.087-.259-.148-.126-.04-.575-.14-.577-.128-.814-.33-.333-.284-.343-.703-.007-.27.14-.508.149-.24.432-.37.286-.13.694-.14.665-.016 1.008.267.345.283.373.77l-.713.049q-.053-.271-.207-.386-.152-.117-.454-.109-.311.008-.484.14-.111.085-.108.222.003.125.111.212.138.11.662.22.524.11.775.237.254.124.399.35.148.223.156.558.007.304-.155.573-.162.269-.468.407-.305.135-.766.147-.67.016-1.037-.283-.367-.302-.451-.894zm6.665.621l-.77.099-.408-.757-1.402.179-.188.834-.751.096.918-3.681.749-.096zm-1.481-1.221l-.65-1.24-.307 1.362zm2.264 1.002l-.654-2.863-1.023.234-.133-.583 2.739-.626.133.583-1.02.233.654 2.863z"
           id="path49" />
        <path
           d="M266.508 207.408l-.461-1.415-1.865-1.546.796-.259 1.224 1.072.342-1.582.782-.255-.6 2.354.459 1.41zm4.739-1.879l-.713.308-.602-.615-1.297.561.051.853-.695.3-.139-3.792.693-.299zm-1.761-.763l-.968-1.011.082 1.394zm3.148.008l-1.836-3.021.594-.361 2.463 1.266-1.226-2.018.567-.344 1.836 3.021-.612.372-2.415-1.23 1.197 1.97zm3.02-1.885l-2.107-2.839 2.105-1.562.356.48-1.532 1.137.467.629 1.425-1.058.355.478-1.425 1.058.573.773 1.586-1.177.355.478z"
           id="path51" />
        <path
           d="M278.648 198.842l-.397-.444 1.147-1.025.938 1.05q-.023.311-.23.72-.207.405-.533.696-.414.37-.875.472-.463.1-.906-.083-.444-.185-.783-.565-.368-.412-.481-.886-.113-.474.067-.942.136-.358.514-.695.491-.439.951-.478.46-.042.864.25l-.44.571q-.229-.144-.484-.118-.254.023-.484.229-.349.312-.358.718-.007.404.382.84.419.469.839.518.417.047.756-.255.167-.149.277-.364.11-.218.146-.419l-.299-.334zm4.655-2.854l-.53.567-.797-.323-.965 1.032.387.762-.517.553-1.642-3.42.516-.551zm-1.919.005l-1.291-.54.632 1.245zm2.157-.305l-2.771-2.195.933-1.178q.352-.444.586-.585.234-.144.521-.114.287.03.532.225.312.247.371.592.057.344-.179.75.25-.098.469-.114.221-.019.703.037l.809.09-.53.669-.923-.073q-.494-.041-.64-.027-.148.012-.249.077-.103.063-.255.256l-.09.113 1.157.917zm-1.156-1.826l.328-.414q.319-.403.364-.53.045-.127.007-.25-.038-.123-.163-.221-.14-.111-.285-.103-.145.005-.276.123-.063.061-.333.401l-.346.437zm5.125-3.633l-.433.644-.839-.192-.789 1.173.504.69-.423.628-2.165-3.115.421-.626zm-1.894.31l-1.36-.328.822 1.128z"
           id="path53" />
      </g>
    </g>
  </g>
  <path
     id="rect890"
     style="opacity:0.999;fill:#f1b608;fill-opacity:1;fill-rule:evenodd;stroke:none;stroke-width:0.4;stroke-linecap:round;stroke-linejoin:round"
     d="m 38.836013,8.0101474 -1.20253,3.6993996 h -3.889635 l 3.147215,2.286791 -1.202001,3.69887 3.146686,-2.286262 3.147215,2.286262 -1.202001,-3.69887 3.147215,-2.286791 h -3.889635 z"
     sodipodi:nodetypes="ccccccccccc" />
</svg>
